# xmcd CD database file
#
# Track frame offsets:
#	150
#	18172
#	45907
#	64427
#	82377
#	87420
#	106592
#	135505
#	155690
#	172230
#	177475
#	182170
#	206282
#	211277
#	214222
#	217695
#	243782
#	247142
#	249812
#
# Disc length: 3588 seconds
#
# Revision: 0
# Processed by: cddbd v1.5.2PL0 Copyright (c) Steve Scherf et al.
# Submitted via: CDex 1.51
#
DISCID=0a0e0213
DTITLE=Forum Stompers mit Manfred Eckhof - Jazz and Platt
DYEAR=1996
DGENRE=Jazz
TTITLE0=When Irish Eyes Are Smiling
TTITLE1=Huuskonzert
TTITLE2=Isle Of Capri
TTITLE3=Vörnehme Lüüd
TTITLE4=Foorstohl
TTITLE5=Das Herz von St. Pauli
TTITLE6=Smuggel
TTITLE7=Mood Indigo
TTITLE8=Urlaub
TTITLE9=Schoolrod
TTITLE10=Olga und Hinnerk
TTITLE11=Kleine Maus
TTITLE12=Amanda
TTITLE13=Alimente
TTITLE14=Opa/Zirkus
TTITLE15=Creole Love Call
TTITLE16=Ajax
TTITLE17=Oma in de Stadt
TTITLE18=Margie
EXTD=YEAR: 1996
EXTT0=
EXTT1=
EXTT2=
EXTT3=
EXTT4=
EXTT5=
EXTT6=
EXTT7=
EXTT8=
EXTT9=
EXTT10=
EXTT11=
EXTT12=
EXTT13=
EXTT14=
EXTT15=
EXTT16=
EXTT17=
EXTT18=
PLAYORDER=
